<?xml version="1.0" encoding="utf-8"?>
<!-- Generator: Adobe Illustrator 24.0.3, SVG Export Plug-In . SVG Version: 6.00 Build 0)  -->
<svg version="1.1" id="Calque_1" xmlns="http://www.w3.org/2000/svg" xmlns:xlink="http://www.w3.org/1999/xlink" x="0px" y="0px"
	 viewBox="0 0 475.4 327.6" style="enable-background:new 0 0 475.4 327.6;" xml:space="preserve">
<style type="text/css">
	.st0{fill:#FFFFFF;}
</style>
<rect width="475.4" height="327.6"/>
<g>
	<path class="st0" d="M65.1,41.5c-11.9,0-21.5,9.7-21.5,21.5v44.7c0,8.7,7.1,15.9,15.9,15.9H64c5.9,0,10.6,4.8,10.6,10.6v130.1
		c0,5.3-4.3,9.5-9.5,9.5c-5.3,0-9.5-4.3-9.5-9.5v-45.5h-12v45.5c0,11.9,9.7,21.5,21.5,21.5c11.9,0,21.5-9.7,21.5-21.5V134.2
		c0-12.5-10.2-22.6-22.6-22.6h-4.6c-2.1,0-3.9-1.7-3.9-3.9V63c0-5.3,4.3-9.5,9.5-9.5c5.3,0,9.5,4.3,9.5,9.5v25.5h12V63
		C86.6,51.1,77,41.5,65.1,41.5z"/>
	<path class="st0" d="M420,43v222.1c0,5.3-4.3,9.5-9.5,9.5c-5.3,0-9.5-4.3-9.5-9.5V61.8c0-11.9-9.7-21.5-21.5-21.5
		s-21.5,9.7-21.5,21.5l0,219.4h12l0-219.4c0-5.3,4.3-9.5,9.5-9.5s9.5,4.3,9.5,9.5v203.3c0,11.9,9.7,21.5,21.5,21.5
		c11.9,0,21.5-9.7,21.5-21.5V43H420z"/>
	<path class="st0" d="M324.5,40.8c-11.9,0-21.5,9.7-21.5,21.5l0,201.9c0,11.9,9.7,21.5,21.5,21.5c11.9,0,21.5-9.7,21.5-21.5l0-201.9
		C346,50.4,336.4,40.8,324.5,40.8z M324.5,273.8c-5.3,0-9.5-4.3-9.5-9.5l0-201.9c0-5.3,4.3-9.5,9.5-9.5s9.5,4.3,9.5,9.5l0,201.9
		C334,269.5,329.8,273.8,324.5,273.8z"/>
	<path class="st0" d="M130,162.4l0,35.2c0,5.3-4.3,9.5-9.5,9.5c-5.3,0-9.5-4.3-9.5-9.5l0-79.9h25.1v-12h-25.1l0-62.8h-12l0,154.7
		c0,11.9,9.7,21.5,21.5,21.5c11.9,0,21.5-9.7,21.5-21.5l0-35.2H130z"/>
	<path class="st0" d="M240.1,264.3c0,5.3-4.3,9.5-9.5,9.5c-5.3,0-9.5-4.3-9.5-9.5l0-146.7h25.1v-12h-25.1l0-62.8h-12l0,221.5
		c0,11.9,9.7,21.5,21.5,21.5c11.9,0,21.5-9.7,21.5-21.5v-67.2h-12V264.3z"/>
	<path class="st0" d="M175.5,41.5c-11.9,0-21.5,9.7-21.5,21.5v25.5h12V63c0-5.3,4.3-9.5,9.5-9.5s9.5,4.3,9.5,9.5v95.6
		c-2.9-1.4-6.1-2.2-9.5-2.2c-11.9,0-21.5,9.7-21.5,21.5l0,86.4c0,11.9,9.7,21.5,21.5,21.5s21.5-9.7,21.5-21.5V63
		C197,51.1,187.4,41.5,175.5,41.5z M175.5,273.8c-5.3,0-9.5-4.3-9.5-9.5l0-86.4c0-5.3,4.3-9.5,9.5-9.5s9.5,4.3,9.5,9.5l0,86.4
		C185,269.6,180.8,273.8,175.5,273.8z"/>
	<path class="st0" d="M60,176.1c-3,0-5.4,2.4-5.4,5.4v10.7c0,3,2.4,5.4,5.4,5.4c3,0,5.4-2.4,5.4-5.4v-24.8c0-3-2.4-5.4-5.4-5.4
		c-3,0-5.4,2.4-5.4,5.4v2.7h4v-2.7c0-0.7,0.6-1.4,1.4-1.4c0.7,0,1.4,0.6,1.4,1.4v8.9C60.9,176.1,60.5,176.1,60,176.1z M61.3,192.1
		c0,0.7-0.6,1.4-1.4,1.4c-0.7,0-1.4-0.6-1.4-1.4v-10.7c0-0.7,0.6-1.4,1.4-1.4c0.7,0,1.4,0.6,1.4,1.4V192.1z"/>
	<polygon class="st0" points="259.9,54.8 269.4,54.8 269.4,272.3 259.9,272.3 259.9,284.3 290.9,284.3 290.9,272.3 281.4,272.3 
		281.4,54.8 290.9,54.8 290.9,42.8 259.9,42.8 	"/>
	<path class="st0" d="M48.6,197.1h4.6v-4h-4.6c-0.6,0-1.2-0.5-1.2-1.2v-29.6h-4V192C43.4,194.8,45.7,197.1,48.6,197.1z"/>
	<polygon class="st0" points="110.9,230.9 98.9,230.9 98.9,284.3 110.9,284.3 110.9,265.8 135.9,265.8 135.9,253.8 110.9,253.8 	"/>
</g>
</svg>
