<?xml version="1.0" encoding="utf-8"?>
<!-- Generator: Adobe Illustrator 24.0.3, SVG Export Plug-In . SVG Version: 6.00 Build 0)  -->
<svg version="1.1" id="Calque_1" xmlns="http://www.w3.org/2000/svg" xmlns:xlink="http://www.w3.org/1999/xlink" x="0px" y="0px"
	 viewBox="0 0 475.4 327.6" style="enable-background:new 0 0 475.4 327.6;" xml:space="preserve">
<g>
	<path d="M64.9,41.2c-11.9,0-21.5,9.7-21.5,21.5v44.7c0,8.7,7.1,15.9,15.9,15.9h4.6c5.9,0,10.6,4.8,10.6,10.6V264
		c0,5.3-4.3,9.5-9.5,9.5c-5.3,0-9.5-4.3-9.5-9.5v-45.5h-12V264c0,11.9,9.7,21.5,21.5,21.5c11.9,0,21.5-9.7,21.5-21.5V133.9
		c0-12.5-10.2-22.6-22.6-22.6h-4.6c-2.1,0-3.9-1.7-3.9-3.9V62.7c0-5.3,4.3-9.5,9.5-9.5c5.3,0,9.5,4.3,9.5,9.5v25.5h12V62.7
		C86.4,50.8,76.8,41.2,64.9,41.2z"/>
	<path d="M419.8,42.7v222.1c0,5.3-4.3,9.5-9.5,9.5c-5.3,0-9.5-4.3-9.5-9.5V61.5c0-11.9-9.7-21.5-21.5-21.5s-21.5,9.7-21.5,21.5
		l0,219.4h12l0-219.4c0-5.3,4.3-9.5,9.5-9.5s9.5,4.3,9.5,9.5v203.3c0,11.9,9.7,21.5,21.5,21.5c11.9,0,21.5-9.7,21.5-21.5V42.7H419.8
		z"/>
	<path d="M324.3,40.5c-11.9,0-21.5,9.7-21.5,21.5l0,201.9c0,11.9,9.7,21.5,21.5,21.5c11.9,0,21.5-9.7,21.5-21.5l0-201.9
		C345.8,50.1,336.2,40.5,324.3,40.5z M324.3,273.5c-5.3,0-9.5-4.3-9.5-9.5l0-201.9c0-5.3,4.3-9.5,9.5-9.5s9.5,4.3,9.5,9.5l0,201.9
		C333.8,269.2,329.6,273.5,324.3,273.5z"/>
	<path d="M129.8,162.1l0,35.2c0,5.3-4.3,9.5-9.5,9.5c-5.3,0-9.5-4.3-9.5-9.5l0-79.9h25.1v-12h-25.1l0-62.8h-12l0,154.7
		c0,11.9,9.7,21.5,21.5,21.5c11.9,0,21.5-9.7,21.5-21.5l0-35.2H129.8z"/>
	<path d="M239.9,264c0,5.3-4.3,9.5-9.5,9.5c-5.3,0-9.5-4.3-9.5-9.5l0-146.7h25.1v-12h-25.1l0-62.8h-12l0,221.5
		c0,11.9,9.7,21.5,21.5,21.5c11.9,0,21.5-9.7,21.5-21.5v-67.2h-12V264z"/>
	<path d="M175.3,41.2c-11.9,0-21.5,9.7-21.5,21.5v25.5h12V62.7c0-5.3,4.3-9.5,9.5-9.5s9.5,4.3,9.5,9.5v95.6
		c-2.9-1.4-6.1-2.2-9.5-2.2c-11.9,0-21.5,9.7-21.5,21.5l0,86.4c0,11.9,9.7,21.5,21.5,21.5s21.5-9.7,21.5-21.5V62.7
		C196.8,50.8,187.2,41.2,175.3,41.2z M175.3,273.5c-5.3,0-9.5-4.3-9.5-9.5l0-86.4c0-5.3,4.3-9.5,9.5-9.5s9.5,4.3,9.5,9.5l0,86.4
		C184.8,269.3,180.6,273.5,175.3,273.5z"/>
	<path d="M59.8,175.8c-3,0-5.4,2.4-5.4,5.4v10.7c0,3,2.4,5.4,5.4,5.4c3,0,5.4-2.4,5.4-5.4V167c0-3-2.4-5.4-5.4-5.4
		c-3,0-5.4,2.4-5.4,5.4v2.7h4V167c0-0.7,0.6-1.4,1.4-1.4c0.7,0,1.4,0.6,1.4,1.4v8.9C60.7,175.8,60.3,175.8,59.8,175.8z M61.1,191.8
		c0,0.7-0.6,1.4-1.4,1.4c-0.7,0-1.4-0.6-1.4-1.4v-10.7c0-0.7,0.6-1.4,1.4-1.4c0.7,0,1.4,0.6,1.4,1.4V191.8z"/>
	<polygon points="259.7,54.5 269.2,54.5 269.2,272 259.7,272 259.7,284 290.7,284 290.7,272 281.2,272 281.2,54.5 290.7,54.5 
		290.7,42.5 259.7,42.5 	"/>
	<path d="M48.4,196.8H53v-4h-4.6c-0.6,0-1.2-0.5-1.2-1.2V162h-4v29.6C43.2,194.5,45.5,196.8,48.4,196.8z"/>
	<polygon points="110.7,230.6 98.7,230.6 98.7,284 110.7,284 110.7,265.5 135.7,265.5 135.7,253.5 110.7,253.5 	"/>
</g>
</svg>
